<svg width="48" height="48" viewBox="0 0 48 48" fill="none" xmlns="http://www.w3.org/2000/svg">
<path d="M7.6935 35.7206C8.08844 35.9119 8.53169 36.0192 9 36.0192H39C39.4683 36.0192 39.9116 35.9119 40.3065 35.7206L28.4893 24.5984L24.6357 27.7719C24.2665 28.076 23.7336 28.076 23.3643 27.7719L19.5108 24.5984L7.6935 35.7206ZM6.28619 34.2996C6.29545 34.2902 6.30493 34.2809 6.31464 34.2718L17.9544 23.3167L6.3643 13.7719C6.33903 13.7511 6.31504 13.7293 6.29234 13.7066C6.10494 14.0983 6 14.5369 6 15V33.0192C6 33.4773 6.10265 33.9113 6.28619 34.2996ZM41.7138 34.2996C41.8974 33.9113 42 33.4773 42 33.0192V15C42 14.5369 41.8951 14.0983 41.7077 13.7067C41.685 13.7293 41.661 13.7511 41.6357 13.7719L30.0456 23.3167L41.6854 34.2718C41.6951 34.2809 41.7046 34.2902 41.7138 34.2996ZM40.2889 12.2902C39.8984 12.1041 39.4614 12 39 12H9C8.53865 12 8.10163 12.1041 7.71115 12.2902L24 25.7045L40.2889 12.2902ZM9 10H39C41.7614 10 44 12.2386 44 15V33.0192C44 35.7806 41.7614 38.0192 39 38.0192H9C6.23858 38.0192 4 35.7806 4 33.0192V15C4 12.2386 6.23858 10 9 10Z" fill="black"/>
</svg>
