<svg width="48" height="48" viewBox="0 0 48 48" fill="none" xmlns="http://www.w3.org/2000/svg">
<path d="M33.9 38C33.4367 40.2822 31.419 42 29 42H11C8.23858 42 6 39.7614 6 37V23C6 20.581 7.71776 18.5633 10 18.1V16C10 10.4772 14.4772 6 20 6C25.5228 6 30 10.4772 30 16V18.1C32.2822 18.5633 34 20.581 34 23V26H37C39.7614 26 42 28.2386 42 31V33C42 35.7614 39.7614 38 37 38H33.9ZM31.8293 38H23C20.2386 38 18 35.7614 18 33V31C18 28.2386 20.2386 26 23 26H32V23C32 21.421 30.7801 20.1269 29.2313 20.0088C29.1571 20.0264 29.0796 20.0357 29 20.0357C28.908 20.0357 28.8189 20.0233 28.7344 20H11C9.34315 20 8 21.3431 8 23V37C8 38.6569 9.34315 40 11 40H29C30.3062 40 31.4175 39.1652 31.8293 38ZM12 18H28V16C28 11.5817 24.4183 8 20 8C15.5817 8 12 11.5817 12 16V18ZM40 33V31C40 29.3431 38.6569 28 37 28H23C21.3431 28 20 29.3431 20 31V33C20 34.6569 21.3431 36 23 36H37C38.6569 36 40 34.6569 40 33ZM23 30H25C25.5523 30 26 30.4477 26 31V33C26 33.5523 25.5523 34 25 34H23C22.4477 34 22 33.5523 22 33V31C22 30.4477 22.4477 30 23 30ZM29 30H31C31.5523 30 32 30.4477 32 31V33C32 33.5523 31.5523 34 31 34H29C28.4477 34 28 33.5523 28 33V31C28 30.4477 28.4477 30 29 30ZM35 30H37C37.5523 30 38 30.4477 38 31V33C38 33.5523 37.5523 34 37 34H35C34.4477 34 34 33.5523 34 33V31C34 30.4477 34.4477 30 35 30Z" fill="black"/>
</svg>
