<?xml version="1.0" encoding="UTF-8" standalone="no"?>
<svg
   width="375"
   viewBox="0 0 375 100"
   height="100"
   version="1.0"
   id="svg85"
   sodipodi:docname="pawsitiveLogo3.svg"
   inkscape:export-filename="C:\Users\mikko\Documents\koulu\MobileWeb\project\wbma-project-pawsitive\assets\pawsitiveLogo2.png"
   inkscape:export-xdpi="96"
   inkscape:export-ydpi="96"
   inkscape:version="1.1.1 (3bf5ae0d25, 2021-09-20)"
   xmlns:inkscape="http://www.inkscape.org/namespaces/inkscape"
   xmlns:sodipodi="http://sodipodi.sourceforge.net/DTD/sodipodi-0.dtd"
   xmlns="http://www.w3.org/2000/svg"
   xmlns:svg="http://www.w3.org/2000/svg">
  <sodipodi:namedview
     id="namedview87"
     pagecolor="#ffffff"
     bordercolor="#666666"
     borderopacity="1.0"
     inkscape:pageshadow="2"
     inkscape:pageopacity="0.0"
     inkscape:pagecheckerboard="0"
     showgrid="false"
     height="200px"
     inkscape:zoom="2.1653333"
     inkscape:cx="187.26909"
     inkscape:cy="187.26909"
     inkscape:window-width="2400"
     inkscape:window-height="1271"
     inkscape:window-x="2391"
     inkscape:window-y="-9"
     inkscape:window-maximized="1"
     inkscape:current-layer="g79" />
  <defs
     id="defs11">
    <clipPath
       id="a">
      <path
         d="m 63,151 h 62 v 58 H 63 Z m 0,0"
         id="path2" />
    </clipPath>
    <clipPath
       id="b">
      <path
         d="m 65.839844,147.45312 62.499996,7.90235 -7.24218,57.29297 -62.50391,-7.90235 z m 0,0"
         id="path5" />
    </clipPath>
    <clipPath
       id="c">
      <path
         d="m 65.839844,147.45312 62.499996,7.90235 -7.24218,57.29297 -62.50391,-7.90235 z m 0,0"
         id="path8" />
    </clipPath>
  </defs>
  <g
     fill="#ffffff"
     id="g19"
     transform="translate(-6.0197039e-8,-129.31034)">
    <g
       id="g17">
      <g
         id="g15">
        <path
           d="m 8.960938,0.378906 c 4.746093,0 8.6875,-4.050781 8.6875,-8.796875 v -4.371093 c 0,-0.433594 0.378906,-0.542969 0.539062,-0.109376 l 0.972656,5.289063 c 8.632813,0.269531 15.757813,-6.746094 15.757813,-15.328125 0,-8.527344 -6.746094,-15.382812 -15.328125,-15.382812 H 8.960938 C 3.941406,-38.320312 0,-34.378906 0,-29.574219 v 21.15625 c 0,4.910157 3.941406,8.796875 8.960938,8.796875 z m 9.496093,-25.3125 c 1.132813,0 2.105469,0.863282 2.105469,1.996094 0,1.132812 -0.972656,2.105469 -2.105469,2.105469 -0.269531,0 -0.539062,-0.109375 -0.808593,-0.269531 v -3.726563 c 0.269531,-0.105469 0.539062,-0.105469 0.808593,-0.105469 z m 0,0"
           transform="translate(43.633,208.947)"
           id="path13" />
      </g>
    </g>
  </g>
  <g
     fill="#ffffff"
     id="g27"
     transform="translate(-6.0197039e-8,-129.31034)">
    <g
       id="g25">
      <g
         id="g23">
        <path
           d="m 13.65625,-26.230469 -1.78125,2.050781 c -0.21875,0.21875 -0.542969,0 -0.378906,-0.214843 L 16.785156,-31.625 C 16.300781,-36.050781 12.738281,-38.15625 8.527344,-38.15625 4.15625,-38.15625 0,-34.324219 0,-29.574219 V -8.203125 C 0,-0.214844 10.199219,3.5625 15.328125,-2.96875 l 5.828125,-7.285156 5.667969,7.285156 c 5.125,6.53125 15.328125,2.753906 15.328125,-5.234375 v -21.371094 c 0,-4.75 -4.15625,-8.582031 -8.527344,-8.582031 -4.15625,0 -7.773438,2.105469 -8.257812,6.53125 l 5.289062,7.230469 c 0.214844,0.269531 -0.164062,0.433593 -0.433594,0.214843 l -1.671875,-2.050781 c -2.375,-2.699219 -4.859375,-5.019531 -7.339843,-5.019531 -2.589844,-0.05078 -5.183594,2.269531 -7.554688,5.019531 z m 0,0"
           transform="translate(107.465,208.947)"
           id="path21" />
      </g>
    </g>
  </g>
  <g
     fill="#ffffff"
     id="g35"
     transform="translate(-6.0197039e-8,-129.31034)">
    <g
       id="g33">
      <g
         id="g31">
        <path
           d="m 34.269531,-29.84375 c 0,-4.75 -3.9375,-8.527344 -8.742187,-8.527344 H 13.816406 c -15.597656,-0.164062 -18.027344,17.429688 -7.449218,22.988282 1.40625,0.703124 2.96875,1.296874 4.480468,1.40625 0.433594,0.160156 0.324219,0.699218 -0.109375,0.699218 -2.535156,0 -5.339843,-0.699218 -7.445312,-2.105468 -2.375,1.726562 -3.402344,3.886718 -3.402344,6.800781 0,3.832031 3.996094,8.6367185 8.582031,8.6367185 h 11.820313 c 17.109375,0 18.347656,-21.1562495 3.941406,-24.4492185 -0.433594,-0.109375 -0.273437,-0.703125 0.160156,-0.703125 2.160157,0.164062 4.261719,0.703125 6.042969,1.730468 2.539062,-1.296874 3.832031,-3.671874 3.832031,-6.476562 z m 0,0"
           transform="translate(151.339,208.947)"
           id="path29" />
      </g>
    </g>
  </g>
  <g
     fill="#ffffff"
     id="g43"
     transform="translate(-6.0197039e-8,-129.31034)">
    <g
       id="g41">
      <g
         id="g39">
        <path
           d="m 8.527344,-0.0546875 c 4.910156,0 8.6875,-3.9375005 8.6875,-8.6328125 v -21.050781 c 0,-4.695313 -3.777344,-8.472657 -8.6875,-8.472657 -4.75,0 -8.527344,3.777344 -8.527344,8.472657 V -8.6875 c 0,4.695312 3.777344,8.6328125 8.527344,8.6328125 z m 0,0"
           transform="translate(187.225,208.947)"
           id="path37" />
      </g>
    </g>
  </g>
  <g
     fill="#ffffff"
     id="g51"
     transform="translate(-6.0197039e-8,-129.31034)">
    <g
       id="g49">
      <g
         id="g47">
        <path
           d="m 25.367188,-38.320312 h -17 c -4.804688,0 -8.527344,3.941406 -8.527344,8.691406 0,4.585937 3.722656,8.527344 8.527344,8.527344 v 12.574218 c 0,4.804688 3.882812,8.742188 8.527343,8.742188 4.746094,0 8.6875,-3.9375 8.6875,-8.742188 l -0.05469,-12.574218 c 4.804687,0 8.527344,-3.941407 8.527344,-8.527344 0,-4.75 -3.886719,-8.691406 -8.6875,-8.691406 z m 0,0"
           transform="translate(206.167,208.947)"
           id="path45" />
      </g>
    </g>
  </g>
  <g
     fill="#ffffff"
     id="g59"
     transform="translate(-6.0197039e-8,-129.31034)">
    <g
       id="g57">
      <g
         id="g55">
        <path
           d="m 8.527344,-0.0546875 c 4.910156,0 8.6875,-3.9375005 8.6875,-8.6328125 v -21.050781 c 0,-4.695313 -3.777344,-8.472657 -8.6875,-8.472657 -4.75,0 -8.527344,3.777344 -8.527344,8.472657 V -8.6875 c 0,4.695312 3.777344,8.6328125 8.527344,8.6328125 z m 0,0"
           transform="translate(241.028,208.947)"
           id="path53" />
      </g>
    </g>
  </g>
  <g
     fill="#ffffff"
     id="g67"
     transform="translate(-6.0197039e-8,-129.31034)">
    <g
       id="g65">
      <g
         id="g63">
        <path
           d="m 32.652344,-38.265625 c -4.265625,-1.996094 -9.335938,-0.214844 -11.386719,4.046875 l -1.621094,3.511719 1.457031,6.042969 c 0.05469,0.378906 -0.324218,0.429687 -0.429687,0.214843 l -4.644531,-9.769531 c -1.996094,-4.261719 -7.066406,-6.042969 -11.332032,-4.046875 -4.261718,1.996094 -6.042968,7.125 -4.046874,11.28125 L 10.957031,-5.289062 C 14.085938,1.296875 23.421875,1.1875 26.5,-5.34375 l 10.199219,-21.640625 c 1.996093,-4.15625 0.214843,-9.285156 -4.046875,-11.28125 z m 0,0"
           transform="translate(259.97,208.947)"
           id="path61" />
      </g>
    </g>
  </g>
  <g
     fill="#ffffff"
     id="g75"
     transform="translate(-6.0197039e-8,-129.31034)">
    <g
       id="g73">
      <g
         id="g71">
        <path
           d="m 0,-29.683594 v 21.15625 C 0,-3.886719 3.777344,0 8.582031,0 h 14.191407 c 5.992187,0 8.527343,-5.179688 8.527343,-8.527344 0,-2.265625 -0.269531,-3.238281 -0.808593,-4.15625 -1.996094,2.375 -4.800782,2.914063 -7.609376,2.644532 -0.378906,0 -0.378906,-0.648438 0,-0.648438 2.265626,-0.269531 4.425782,-0.917969 6.046876,-2.695312 2.371093,-2.375 2.914062,-6.53125 1.457031,-9.714844 -2.160157,2.265625 -5.074219,2.914062 -8.042969,2.535156 -0.378906,-0.160156 -0.378906,-0.703125 0,-0.703125 3.238281,-0.105469 5.773438,-1.078125 7.5,-3.882813 3.507812,-5.453124 -0.269531,-13.222656 -7.070312,-13.222656 H 8.6875 c -5.070312,0 -8.6875,3.882813 -8.6875,8.6875 z m 0,0"
           transform="translate(298.662,208.947)"
           id="path69" />
      </g>
    </g>
  </g>
  <g
     clip-path="url(#a)"
     id="g83"
     transform="translate(-6.0197039e-8,-129.31034)">
    <g
       clip-path="url(#b)"
       id="g81">
      <g
         clip-path="url(#c)"
         id="g79">
        <path
           fill="#9dcd5a"
           d="m 63.09375,175.97266 c 0.09375,-5.80079 4.542969,-8.79297 9.726562,-5.89844 3.25,1.8164 6.097657,6.26953 6.1875,10.94922 0.113282,5.75781 -4.773437,8.95703 -9.777343,5.95312 -3.179688,-1.90625 -6.210938,-6.22265 -6.136719,-11.0039 z m 44.69141,-22.23438 c 5.87109,1.99219 6.40625,12.59766 -0.1875,19 -5.94532,5.77734 -13.886722,-0.30859 -10.230472,-11.13672 1.378906,-4.09765 5.875002,-9.40234 10.417972,-7.86328 z m 16.6875,25.87891 c -0.98438,4.32031 -4.38672,8.0664 -8.37891,9.42578 -5.50391,1.875 -9.75781,-1.8711 -8.53516,-7.58594 1.0625,-4.94922 5.17188,-8.30859 8.39454,-9.40625 5.32421,-1.8125 9.82031,1.85547 8.51953,7.56641 z M 72.179688,199.75781 C 71.714844,194.91016 77.300781,188.85937 80.65625,186 c 1.375,-1.17578 3.410156,-2.64844 5.039062,-3.53125 6.035157,-3.27734 9.820313,-3.09766 15.152348,1.75 1.65234,1.5 2.93359,2.89844 4.16015,4.5625 0.33203,0.44922 0.59375,0.78516 0.88282,1.26953 l 1.69921,2.57813 c 2.07032,3.20312 5.35157,10.9375 2.72266,14.16015 -2.83203,3.46485 -9.39062,1.21875 -13.570312,-0.4414 -1.878907,-0.7461 -4.945313,-2.06641 -7.035157,-2.25782 -4.65625,-0.42578 -7.5625,3.62891 -13.738281,0.42188 -1.785156,-0.92578 -3.585938,-2.60156 -3.789062,-4.75391 z m 12.679687,-47.66797 c 1.433594,0.42188 2.265625,0.95313 3.164063,1.76563 1.105468,1 1.339843,1.51172 2.066406,2.55078 0.730468,1.04687 1.066406,1.74609 1.511718,2.99219 2.765626,7.67578 -0.886718,15.71875 -7.140624,13.8164 -4.117188,-1.2539 -6.890626,-6.45703 -7.386719,-10.91015 -0.304688,-2.73047 0.117187,-5.60547 1.550781,-7.76563 1.140625,-1.71875 3.382812,-3.27734 6.234375,-2.44922 z m 0,0"
           fill-rule="evenodd"
           id="path77"
           style="fill:#425e20;fill-opacity:1" />
      </g>
    </g>
  </g>
</svg>
