<svg xmlns="http://www.w3.org/2000/svg" width="375" viewBox="0 0 375 375" height="375" version="1.0"><defs><clipPath id="a"><path d="M 63 151 L 125 151 L 125 209 L 63 209 Z M 63 151"/></clipPath><clipPath id="b"><path d="M 65.839844 147.453125 L 128.339844 155.355469 L 121.097656 212.648438 L 58.59375 204.746094 Z M 65.839844 147.453125"/></clipPath><clipPath id="c"><path d="M 65.839844 147.453125 L 128.339844 155.355469 L 121.097656 212.648438 L 58.59375 204.746094 Z M 65.839844 147.453125"/></clipPath></defs><g fill="#FFF"><g><g><path d="M 8.960938 0.378906 C 13.707031 0.378906 17.648438 -3.671875 17.648438 -8.417969 L 17.648438 -12.789062 C 17.648438 -13.222656 18.027344 -13.332031 18.1875 -12.898438 L 19.160156 -7.609375 C 27.792969 -7.339844 34.917969 -14.355469 34.917969 -22.9375 C 34.917969 -31.464844 28.171875 -38.320312 19.589844 -38.320312 L 8.960938 -38.320312 C 3.941406 -38.320312 0 -34.378906 0 -29.574219 L 0 -8.417969 C 0 -3.507812 3.941406 0.378906 8.960938 0.378906 Z M 18.457031 -24.933594 C 19.589844 -24.933594 20.5625 -24.070312 20.5625 -22.9375 C 20.5625 -21.804688 19.589844 -20.832031 18.457031 -20.832031 C 18.1875 -20.832031 17.917969 -20.941406 17.648438 -21.101562 L 17.648438 -24.828125 C 17.917969 -24.933594 18.1875 -24.933594 18.457031 -24.933594 Z M 18.457031 -24.933594" transform="translate(43.633 208.947)"/></g></g></g><g fill="#FFF"><g><g><path d="M 13.65625 -26.230469 L 11.875 -24.179688 C 11.65625 -23.960938 11.332031 -24.179688 11.496094 -24.394531 L 16.785156 -31.625 C 16.300781 -36.050781 12.738281 -38.15625 8.527344 -38.15625 C 4.15625 -38.15625 0 -34.324219 0 -29.574219 L 0 -8.203125 C 0 -0.214844 10.199219 3.5625 15.328125 -2.96875 L 21.15625 -10.253906 L 26.824219 -2.96875 C 31.949219 3.5625 42.152344 -0.214844 42.152344 -8.203125 L 42.152344 -29.574219 C 42.152344 -34.324219 37.996094 -38.15625 33.625 -38.15625 C 29.46875 -38.15625 25.851562 -36.050781 25.367188 -31.625 L 30.65625 -24.394531 C 30.871094 -24.125 30.492188 -23.960938 30.222656 -24.179688 L 28.550781 -26.230469 C 26.175781 -28.929688 23.691406 -31.25 21.210938 -31.25 C 18.621094 -31.300781 16.027344 -28.980469 13.65625 -26.230469 Z M 13.65625 -26.230469" transform="translate(107.465 208.947)"/></g></g></g><g fill="#FFF"><g><g><path d="M 34.269531 -29.84375 C 34.269531 -34.59375 30.332031 -38.371094 25.527344 -38.371094 L 13.816406 -38.371094 C -1.78125 -38.535156 -4.210938 -20.941406 6.367188 -15.382812 C 7.773438 -14.679688 9.335938 -14.085938 10.847656 -13.976562 C 11.28125 -13.816406 11.171875 -13.277344 10.738281 -13.277344 C 8.203125 -13.277344 5.398438 -13.976562 3.292969 -15.382812 C 0.917969 -13.65625 -0.109375 -11.496094 -0.109375 -8.582031 C -0.109375 -4.75 3.886719 0.0546875 8.472656 0.0546875 L 20.292969 0.0546875 C 37.402344 0.0546875 38.640625 -21.101562 24.234375 -24.394531 C 23.800781 -24.503906 23.960938 -25.097656 24.394531 -25.097656 C 26.554688 -24.933594 28.65625 -24.394531 30.4375 -23.367188 C 32.976562 -24.664062 34.269531 -27.039062 34.269531 -29.84375 Z M 34.269531 -29.84375" transform="translate(151.339 208.947)"/></g></g></g><g fill="#FFF"><g><g><path d="M 8.527344 -0.0546875 C 13.4375 -0.0546875 17.214844 -3.992188 17.214844 -8.6875 L 17.214844 -29.738281 C 17.214844 -34.433594 13.4375 -38.210938 8.527344 -38.210938 C 3.777344 -38.210938 0 -34.433594 0 -29.738281 L 0 -8.6875 C 0 -3.992188 3.777344 -0.0546875 8.527344 -0.0546875 Z M 8.527344 -0.0546875" transform="translate(187.225 208.947)"/></g></g></g><g fill="#FFF"><g><g><path d="M 25.367188 -38.320312 L 8.367188 -38.320312 C 3.5625 -38.320312 -0.160156 -34.378906 -0.160156 -29.628906 C -0.160156 -25.042969 3.5625 -21.101562 8.367188 -21.101562 L 8.367188 -8.527344 C 8.367188 -3.722656 12.25 0.214844 16.894531 0.214844 C 21.640625 0.214844 25.582031 -3.722656 25.582031 -8.527344 L 25.527344 -21.101562 C 30.332031 -21.101562 34.054688 -25.042969 34.054688 -29.628906 C 34.054688 -34.378906 30.167969 -38.320312 25.367188 -38.320312 Z M 25.367188 -38.320312" transform="translate(206.167 208.947)"/></g></g></g><g fill="#FFF"><g><g><path d="M 8.527344 -0.0546875 C 13.4375 -0.0546875 17.214844 -3.992188 17.214844 -8.6875 L 17.214844 -29.738281 C 17.214844 -34.433594 13.4375 -38.210938 8.527344 -38.210938 C 3.777344 -38.210938 0 -34.433594 0 -29.738281 L 0 -8.6875 C 0 -3.992188 3.777344 -0.0546875 8.527344 -0.0546875 Z M 8.527344 -0.0546875" transform="translate(241.028 208.947)"/></g></g></g><g fill="#FFF"><g><g><path d="M 32.652344 -38.265625 C 28.386719 -40.261719 23.316406 -38.480469 21.265625 -34.21875 L 19.644531 -30.707031 L 21.101562 -24.664062 C 21.15625 -24.285156 20.777344 -24.234375 20.671875 -24.449219 L 16.027344 -34.21875 C 14.03125 -38.480469 8.960938 -40.261719 4.695312 -38.265625 C 0.433594 -36.269531 -1.347656 -31.140625 0.648438 -26.984375 L 10.957031 -5.289062 C 14.085938 1.296875 23.421875 1.1875 26.5 -5.34375 L 36.699219 -26.984375 C 38.695312 -31.140625 36.914062 -36.269531 32.652344 -38.265625 Z M 32.652344 -38.265625" transform="translate(259.97 208.947)"/></g></g></g><g fill="#FFF"><g><g><path d="M 0 -29.683594 L 0 -8.527344 C 0 -3.886719 3.777344 0 8.582031 0 L 22.773438 0 C 28.765625 0 31.300781 -5.179688 31.300781 -8.527344 C 31.300781 -10.792969 31.03125 -11.765625 30.492188 -12.683594 C 28.496094 -10.308594 25.691406 -9.769531 22.882812 -10.039062 C 22.503906 -10.039062 22.503906 -10.6875 22.882812 -10.6875 C 25.148438 -10.957031 27.308594 -11.605469 28.929688 -13.382812 C 31.300781 -15.757812 31.84375 -19.914062 30.386719 -23.097656 C 28.226562 -20.832031 25.3125 -20.183594 22.34375 -20.5625 C 21.964844 -20.722656 21.964844 -21.265625 22.34375 -21.265625 C 25.582031 -21.371094 28.117188 -22.34375 29.84375 -25.148438 C 33.351562 -30.601562 29.574219 -38.371094 22.773438 -38.371094 L 8.6875 -38.371094 C 3.617188 -38.371094 0 -34.488281 0 -29.683594 Z M 0 -29.683594" transform="translate(298.662 208.947)"/></g></g></g><g clip-path="url(#a)"><g clip-path="url(#b)"><g clip-path="url(#c)"><path fill="#9DCD5A" d="M 63.09375 175.972656 C 63.1875 170.171875 67.636719 167.179688 72.820312 170.074219 C 76.070312 171.890625 78.917969 176.34375 79.007812 181.023438 C 79.121094 186.78125 74.234375 189.980469 69.230469 186.976562 C 66.050781 185.070312 63.019531 180.753906 63.09375 175.972656 Z M 107.785156 153.738281 C 113.65625 155.730469 114.191406 166.335938 107.597656 172.738281 C 101.652344 178.515625 93.710938 172.429688 97.367188 161.601562 C 98.746094 157.503906 103.242188 152.199219 107.785156 153.738281 Z M 124.472656 179.617188 C 123.488281 183.9375 120.085938 187.683594 116.09375 189.042969 C 110.589844 190.917969 106.335938 187.171875 107.558594 181.457031 C 108.621094 176.507812 112.730469 173.148438 115.953125 172.050781 C 121.277344 170.238281 125.773438 173.90625 124.472656 179.617188 Z M 72.179688 199.757812 C 71.714844 194.910156 77.300781 188.859375 80.65625 186 C 82.03125 184.824219 84.066406 183.351562 85.695312 182.46875 C 91.730469 179.191406 95.515625 179.371094 100.847656 184.21875 C 102.5 185.71875 103.78125 187.117188 105.007812 188.78125 C 105.339844 189.230469 105.601562 189.566406 105.890625 190.050781 L 107.589844 192.628906 C 109.660156 195.832031 112.941406 203.566406 110.3125 206.789062 C 107.480469 210.253906 100.921875 208.007812 96.742188 206.347656 C 94.863281 205.601562 91.796875 204.28125 89.707031 204.089844 C 85.050781 203.664062 82.144531 207.71875 75.96875 204.511719 C 74.183594 203.585938 72.382812 201.910156 72.179688 199.757812 Z M 84.859375 152.089844 C 86.292969 152.511719 87.125 153.042969 88.023438 153.855469 C 89.128906 154.855469 89.363281 155.367188 90.089844 156.40625 C 90.820312 157.453125 91.15625 158.152344 91.601562 159.398438 C 94.367188 167.074219 90.714844 175.117188 84.460938 173.214844 C 80.34375 171.960938 77.570312 166.757812 77.074219 162.304688 C 76.769531 159.574219 77.191406 156.699219 78.625 154.539062 C 79.765625 152.820312 82.007812 151.261719 84.859375 152.089844 Z M 84.859375 152.089844" fill-rule="evenodd"/></g></g></g></svg>