<svg xmlns="http://www.w3.org/2000/svg" width="375" viewBox="0 0 375 375" height="375" version="1.0"><defs><clipPath id="a"><path d="M 63 221 L 126 221 L 126 279 L 63 279 Z M 63 221"/></clipPath><clipPath id="b"><path d="M 66.558594 217.355469 L 129.058594 225.261719 L 121.816406 282.554688 L 59.3125 274.652344 Z M 66.558594 217.355469"/></clipPath><clipPath id="c"><path d="M 66.558594 217.355469 L 129.058594 225.261719 L 121.816406 282.554688 L 59.3125 274.652344 Z M 66.558594 217.355469"/></clipPath></defs><g fill="#FFF"><g><g><path d="M 8.960938 0.378906 C 13.707031 0.378906 17.648438 -3.671875 17.648438 -8.417969 L 17.648438 -12.789062 C 17.648438 -13.222656 18.027344 -13.332031 18.1875 -12.898438 L 19.160156 -7.609375 C 27.792969 -7.339844 34.917969 -14.355469 34.917969 -22.9375 C 34.917969 -31.464844 28.171875 -38.320312 19.589844 -38.320312 L 8.960938 -38.320312 C 3.941406 -38.320312 0 -34.378906 0 -29.574219 L 0 -8.417969 C 0 -3.507812 3.941406 0.378906 8.960938 0.378906 Z M 18.457031 -24.933594 C 19.589844 -24.933594 20.5625 -24.070312 20.5625 -22.9375 C 20.5625 -21.804688 19.589844 -20.832031 18.457031 -20.832031 C 18.1875 -20.832031 17.917969 -20.941406 17.648438 -21.101562 L 17.648438 -24.828125 C 17.917969 -24.933594 18.1875 -24.933594 18.457031 -24.933594 Z M 18.457031 -24.933594" transform="translate(44.352 278.852)"/></g></g></g><g fill="#FFF"><g><g><path d="M 13.65625 -26.230469 L 11.875 -24.179688 C 11.65625 -23.960938 11.332031 -24.179688 11.496094 -24.394531 L 16.785156 -31.625 C 16.300781 -36.050781 12.738281 -38.15625 8.527344 -38.15625 C 4.15625 -38.15625 0 -34.324219 0 -29.574219 L 0 -8.203125 C 0 -0.214844 10.199219 3.5625 15.328125 -2.96875 L 21.15625 -10.253906 L 26.824219 -2.96875 C 31.949219 3.5625 42.152344 -0.214844 42.152344 -8.203125 L 42.152344 -29.574219 C 42.152344 -34.324219 37.996094 -38.15625 33.625 -38.15625 C 29.46875 -38.15625 25.851562 -36.050781 25.367188 -31.625 L 30.65625 -24.394531 C 30.871094 -24.125 30.492188 -23.960938 30.222656 -24.179688 L 28.550781 -26.230469 C 26.175781 -28.929688 23.691406 -31.25 21.210938 -31.25 C 18.621094 -31.300781 16.027344 -28.980469 13.65625 -26.230469 Z M 13.65625 -26.230469" transform="translate(108.184 278.852)"/></g></g></g><g fill="#FFF"><g><g><path d="M 34.269531 -29.84375 C 34.269531 -34.59375 30.332031 -38.371094 25.527344 -38.371094 L 13.816406 -38.371094 C -1.78125 -38.535156 -4.210938 -20.941406 6.367188 -15.382812 C 7.773438 -14.679688 9.335938 -14.085938 10.847656 -13.976562 C 11.28125 -13.816406 11.171875 -13.277344 10.738281 -13.277344 C 8.203125 -13.277344 5.398438 -13.976562 3.292969 -15.382812 C 0.917969 -13.65625 -0.109375 -11.496094 -0.109375 -8.582031 C -0.109375 -4.75 3.886719 0.0546875 8.472656 0.0546875 L 20.292969 0.0546875 C 37.402344 0.0546875 38.640625 -21.101562 24.234375 -24.394531 C 23.800781 -24.503906 23.960938 -25.097656 24.394531 -25.097656 C 26.554688 -24.933594 28.65625 -24.394531 30.4375 -23.367188 C 32.976562 -24.664062 34.269531 -27.039062 34.269531 -29.84375 Z M 34.269531 -29.84375" transform="translate(152.058 278.852)"/></g></g></g><g fill="#FFF"><g><g><path d="M 8.527344 -0.0546875 C 13.4375 -0.0546875 17.214844 -3.992188 17.214844 -8.6875 L 17.214844 -29.738281 C 17.214844 -34.433594 13.4375 -38.210938 8.527344 -38.210938 C 3.777344 -38.210938 0 -34.433594 0 -29.738281 L 0 -8.6875 C 0 -3.992188 3.777344 -0.0546875 8.527344 -0.0546875 Z M 8.527344 -0.0546875" transform="translate(187.944 278.852)"/></g></g></g><g fill="#FFF"><g><g><path d="M 25.367188 -38.320312 L 8.367188 -38.320312 C 3.5625 -38.320312 -0.160156 -34.378906 -0.160156 -29.628906 C -0.160156 -25.042969 3.5625 -21.101562 8.367188 -21.101562 L 8.367188 -8.527344 C 8.367188 -3.722656 12.25 0.214844 16.894531 0.214844 C 21.640625 0.214844 25.582031 -3.722656 25.582031 -8.527344 L 25.527344 -21.101562 C 30.332031 -21.101562 34.054688 -25.042969 34.054688 -29.628906 C 34.054688 -34.378906 30.167969 -38.320312 25.367188 -38.320312 Z M 25.367188 -38.320312" transform="translate(206.886 278.852)"/></g></g></g><g fill="#FFF"><g><g><path d="M 8.527344 -0.0546875 C 13.4375 -0.0546875 17.214844 -3.992188 17.214844 -8.6875 L 17.214844 -29.738281 C 17.214844 -34.433594 13.4375 -38.210938 8.527344 -38.210938 C 3.777344 -38.210938 0 -34.433594 0 -29.738281 L 0 -8.6875 C 0 -3.992188 3.777344 -0.0546875 8.527344 -0.0546875 Z M 8.527344 -0.0546875" transform="translate(241.747 278.852)"/></g></g></g><g fill="#FFF"><g><g><path d="M 32.652344 -38.265625 C 28.386719 -40.261719 23.316406 -38.480469 21.265625 -34.21875 L 19.644531 -30.707031 L 21.101562 -24.664062 C 21.15625 -24.285156 20.777344 -24.234375 20.671875 -24.449219 L 16.027344 -34.21875 C 14.03125 -38.480469 8.960938 -40.261719 4.695312 -38.265625 C 0.433594 -36.269531 -1.347656 -31.140625 0.648438 -26.984375 L 10.957031 -5.289062 C 14.085938 1.296875 23.421875 1.1875 26.5 -5.34375 L 36.699219 -26.984375 C 38.695312 -31.140625 36.914062 -36.269531 32.652344 -38.265625 Z M 32.652344 -38.265625" transform="translate(260.689 278.852)"/></g></g></g><g fill="#FFF"><g><g><path d="M 0 -29.683594 L 0 -8.527344 C 0 -3.886719 3.777344 0 8.582031 0 L 22.773438 0 C 28.765625 0 31.300781 -5.179688 31.300781 -8.527344 C 31.300781 -10.792969 31.03125 -11.765625 30.492188 -12.683594 C 28.496094 -10.308594 25.691406 -9.769531 22.882812 -10.039062 C 22.503906 -10.039062 22.503906 -10.6875 22.882812 -10.6875 C 25.148438 -10.957031 27.308594 -11.605469 28.929688 -13.382812 C 31.300781 -15.757812 31.84375 -19.914062 30.386719 -23.097656 C 28.226562 -20.832031 25.3125 -20.183594 22.34375 -20.5625 C 21.964844 -20.722656 21.964844 -21.265625 22.34375 -21.265625 C 25.582031 -21.371094 28.117188 -22.34375 29.84375 -25.148438 C 33.351562 -30.601562 29.574219 -38.371094 22.773438 -38.371094 L 8.6875 -38.371094 C 3.617188 -38.371094 0 -34.488281 0 -29.683594 Z M 0 -29.683594" transform="translate(299.382 278.852)"/></g></g></g><g clip-path="url(#a)"><g clip-path="url(#b)"><g clip-path="url(#c)"><path fill="#9DCD5A" d="M 63.8125 245.878906 C 63.90625 240.078125 68.355469 237.085938 73.539062 239.980469 C 76.789062 241.796875 79.636719 246.246094 79.726562 250.929688 C 79.839844 256.6875 74.953125 259.886719 69.949219 256.882812 C 66.769531 254.972656 63.738281 250.660156 63.8125 245.878906 Z M 108.503906 223.644531 C 114.375 225.632812 114.914062 236.238281 108.316406 242.644531 C 102.371094 248.421875 94.429688 242.335938 98.085938 231.507812 C 99.464844 227.410156 103.960938 222.101562 108.503906 223.644531 Z M 125.191406 249.519531 C 124.207031 253.84375 120.804688 257.589844 116.8125 258.949219 C 111.308594 260.824219 107.054688 257.078125 108.28125 251.363281 C 109.339844 246.410156 113.449219 243.054688 116.675781 241.957031 C 121.996094 240.144531 126.492188 243.8125 125.191406 249.519531 Z M 72.898438 269.664062 C 72.433594 264.816406 78.023438 258.761719 81.375 255.902344 C 82.75 254.730469 84.785156 253.257812 86.414062 252.375 C 92.453125 249.097656 96.234375 249.273438 101.566406 254.125 C 103.21875 255.625 104.5 257.023438 105.730469 258.6875 C 106.058594 259.136719 106.320312 259.472656 106.609375 259.957031 L 108.308594 262.53125 C 110.378906 265.734375 113.660156 273.472656 111.03125 276.695312 C 108.199219 280.160156 101.640625 277.914062 97.460938 276.253906 C 95.582031 275.507812 92.515625 274.1875 90.425781 273.996094 C 85.769531 273.570312 82.863281 277.625 76.6875 274.417969 C 74.902344 273.492188 73.101562 271.8125 72.898438 269.664062 Z M 85.578125 221.996094 C 87.011719 222.414062 87.847656 222.949219 88.742188 223.761719 C 89.847656 224.761719 90.085938 225.269531 90.808594 226.3125 C 91.539062 227.359375 91.875 228.054688 92.320312 229.304688 C 95.085938 236.980469 91.433594 245.023438 85.179688 243.121094 C 81.0625 241.867188 78.289062 236.664062 77.792969 232.210938 C 77.488281 229.480469 77.910156 226.601562 79.347656 224.445312 C 80.484375 222.726562 82.726562 221.167969 85.578125 221.996094 Z M 85.578125 221.996094" fill-rule="evenodd"/></g></g></g></svg>