<svg width="54" height="54" viewBox="0 0 54 54" fill="none" xmlns="http://www.w3.org/2000/svg">
<path d="M2 12C2 6.47715 6.47715 2 12 2H42C47.5228 2 52 6.47715 52 12V42C52 47.5228 47.5228 52 42 52H12C6.47715 52 2 47.5228 2 42V12Z" fill="#8ACD5B"/>
<path d="M10.3334 22.8334V43.6668H35.3334V22.8334H10.3334ZM14.5 18.6667V10.3334C14.5 9.22835 14.939 8.16854 15.7204 7.38714C16.5018 6.60573 17.5616 6.16675 18.6667 6.16675H43.6667C44.7718 6.16675 45.8316 6.60573 46.613 7.38714C47.3944 8.16854 47.8334 9.22835 47.8334 10.3334V31.1667C47.8334 32.2718 47.3944 33.3316 46.613 34.113C45.8316 34.8944 44.7718 35.3334 43.6667 35.3334H39.5V43.6668C39.5 44.7718 39.061 45.8316 38.2796 46.613C37.4982 47.3944 36.4384 47.8334 35.3334 47.8334H10.3334C9.22829 47.8334 8.16848 47.3944 7.38708 46.613C6.60567 45.8316 6.16669 44.7718 6.16669 43.6668V22.8334C6.16669 21.7283 6.60567 20.6685 7.38708 19.8871C8.16848 19.1057 9.22829 18.6667 10.3334 18.6667H14.5ZM18.6667 18.6667H35.3334C36.4384 18.6667 37.4982 19.1057 38.2796 19.8871C39.061 20.6685 39.5 21.7283 39.5 22.8334V31.1667H43.6667V10.3334H18.6667V18.6667ZM18.6667 37.4168C17.0091 37.4168 15.4194 36.7583 14.2473 35.5862C13.0752 34.4141 12.4167 32.8244 12.4167 31.1667C12.4167 29.5091 13.0752 27.9194 14.2473 26.7473C15.4194 25.5752 17.0091 24.9167 18.6667 24.9167C20.3243 24.9167 21.914 25.5752 23.0861 26.7473C24.2582 27.9194 24.9167 29.5091 24.9167 31.1667C24.9167 32.8244 24.2582 34.4141 23.0861 35.5862C21.914 36.7583 20.3243 37.4168 18.6667 37.4168ZM18.6667 33.2501C19.2192 33.2501 19.7491 33.0306 20.1398 32.6399C20.5305 32.2492 20.75 31.7193 20.75 31.1667C20.75 30.6142 20.5305 30.0843 20.1398 29.6936C19.7491 29.3029 19.2192 29.0834 18.6667 29.0834C18.1142 29.0834 17.5842 29.3029 17.1935 29.6936C16.8028 30.0843 16.5834 30.6142 16.5834 31.1667C16.5834 31.7193 16.8028 32.2492 17.1935 32.6399C17.5842 33.0306 18.1142 33.2501 18.6667 33.2501ZM20.75 18.6667C20.75 17.0091 21.4085 15.4194 22.5806 14.2473C23.7527 13.0752 25.3424 12.4167 27 12.4167C28.6576 12.4167 30.2473 13.0752 31.4194 14.2473C32.5915 15.4194 33.25 17.0091 33.25 18.6667H29.0834C29.0834 18.1142 28.8639 17.5843 28.4732 17.1936C28.0825 16.8029 27.5526 16.5834 27 16.5834C26.4475 16.5834 25.9176 16.8029 25.5269 17.1936C25.1362 17.5843 24.9167 18.1142 24.9167 18.6667H20.75ZM24.6334 46.8293L21.0334 44.7313L26.7104 34.9959C27.2032 34.1505 27.8877 33.4326 28.7086 32.9C29.5295 32.3675 30.4641 32.0351 31.4369 31.9297C32.4098 31.8243 33.3938 31.9488 34.3098 32.2932C35.2257 32.6376 36.048 33.1923 36.7104 33.9126L38.9771 36.3793L35.9084 39.2001L33.6438 36.7334C33.4229 36.4934 33.1487 36.3086 32.8433 36.1939C32.5379 36.0792 32.2099 36.0378 31.8856 36.0731C31.5613 36.1084 31.2498 36.2193 30.9762 36.3969C30.7026 36.5746 30.4746 36.814 30.3104 37.0959L24.6334 46.8293V46.8293ZM38.2 19.8084C39.3698 19.3569 40.6486 19.2685 41.8694 19.5547C43.0902 19.8408 44.1964 20.4883 45.0438 21.4126L47.3104 23.8792L44.2417 26.7001L41.9771 24.2334C41.6696 23.8988 41.2611 23.6739 40.8139 23.593C40.3666 23.5122 39.9053 23.5798 39.5 23.7855V22.8334C39.5 21.6438 39 20.5688 38.2 19.8105V19.8084Z" fill="black"/>
<path d="M12 4H42V0H12V4ZM50 12V42H54V12H50ZM42 50H12V54H42V50ZM4 42V12H0V42H4ZM12 50C7.58172 50 4 46.4183 4 42H0C0 48.6274 5.37258 54 12 54V50ZM50 42C50 46.4183 46.4183 50 42 50V54C48.6274 54 54 48.6274 54 42H50ZM42 4C46.4183 4 50 7.58172 50 12H54C54 5.37258 48.6274 0 42 0V4ZM12 0C5.37258 0 0 5.37258 0 12H4C4 7.58172 7.58172 4 12 4V0Z" fill="black"/>
</svg>
