<svg xmlns="http://www.w3.org/2000/svg" viewBox="0 0 1683.75 1190.25" version="1.0"><defs><clipPath id="a"><path d="M 0.40625 0 L 1683.09375 0 L 1683.09375 1189.5 L 0.40625 1189.5 Z M 0.40625 0"/></clipPath><clipPath id="b"><path d="M 346.722656 303.285156 L 772.675781 303.285156 L 772.675781 617.382812 L 346.722656 617.382812 Z M 346.722656 303.285156"/></clipPath><clipPath id="c"><path d="M 936.46875 303.285156 L 1311.53125 303.285156 L 1311.53125 617.382812 L 936.46875 617.382812 Z M 936.46875 303.285156"/></clipPath><clipPath id="d"><path d="M 918 770 L 1118 770 L 1118 947 L 918 947 Z M 918 770"/></clipPath><clipPath id="e"><path d="M 921.117188 760.207031 L 1123.925781 772.058594 L 1113.167969 956.15625 L 910.359375 944.304688 Z M 921.117188 760.207031"/></clipPath><clipPath id="f"><path d="M 921.117188 760.207031 L 1123.925781 772.058594 L 1113.167969 956.15625 L 910.359375 944.304688 Z M 921.117188 760.207031"/></clipPath></defs><g clip-path="url(#a)"><path fill="#FFF" d="M 0.40625 0 L 1683.34375 0 L 1683.34375 1197.171875 L 0.40625 1197.171875 Z M 0.40625 0"/><path fill="#FFF" d="M 0.40625 0 L 1683.34375 0 L 1683.34375 1189.675781 L 0.40625 1189.675781 Z M 0.40625 0"/><path fill="#9DCD5A" d="M 0.40625 0 L 1683.34375 0 L 1683.34375 1189.675781 L 0.40625 1189.675781 Z M 0.40625 0"/></g><path fill="#FFF" d="M 424.199219 189.730469 L 424.199219 730.96875 C 425.785156 731.082031 427.371094 731.082031 428.960938 731.082031 L 689.828125 731.082031 L 689.828125 189.730469 L 424.199219 189.730469 M 730.640625 189.730469 L 689.828125 189.730469 L 689.828125 730.96875 L 690.734375 730.96875 C 756.71875 730.96875 814.648438 677.140625 819.410156 611.410156 L 841.746094 309.175781 C 846.621094 243.558594 796.625 189.730469 730.640625 189.730469 M 389.050781 189.730469 C 323.070312 189.730469 273.074219 243.558594 277.949219 309.289062 L 300.28125 611.523438 C 305.042969 675.664062 360.371094 728.476562 424.3125 730.96875 L 424.3125 189.730469 L 389.050781 189.730469"/><path fill="#FFF" d="M 1259.578125 731.003906 L 1259.578125 189.765625 C 1257.992188 189.652344 1256.40625 189.652344 1254.816406 189.652344 L 993.949219 189.652344 L 993.949219 731.003906 L 1259.578125 731.003906 M 953.136719 731.003906 L 993.949219 731.003906 L 993.949219 189.765625 L 993.042969 189.765625 C 927.058594 189.765625 869.125 243.59375 864.363281 309.324219 L 842.03125 611.558594 C 837.15625 677.175781 887.152344 731.003906 953.136719 731.003906 M 1294.722656 731.003906 C 1360.707031 731.003906 1410.703125 677.175781 1405.828125 611.445312 L 1383.496094 309.210938 C 1378.734375 245.066406 1323.40625 192.257812 1259.464844 189.765625 L 1259.464844 731.003906 L 1294.722656 731.003906"/><g clip-path="url(#b)"><path fill="#425E20" d="M 605.988281 441.011719 C 605.988281 433.5 612.074219 427.414062 619.585938 427.414062 C 627.097656 427.414062 633.1875 433.5 633.1875 441.011719 C 633.1875 448.523438 627.097656 454.613281 619.585938 454.613281 C 612.074219 454.613281 605.988281 448.523438 605.988281 441.011719 Z M 480.617188 441.011719 C 480.617188 433.5 486.703125 427.414062 494.214844 427.414062 C 501.726562 427.414062 507.8125 433.5 507.8125 441.011719 C 507.8125 448.523438 501.726562 454.613281 494.214844 454.613281 C 486.703125 454.613281 480.617188 448.523438 480.617188 441.011719 Z M 756.988281 491.195312 C 749.332031 508.898438 729.46875 523.769531 710.722656 516.90625 C 698.429688 512.417969 688.300781 498.917969 683.621094 480.796875 C 680.761719 469.710938 679.90625 458.351562 679 446.328125 C 678.574219 440.644531 678.128906 434.769531 677.457031 428.980469 C 673.296875 393.296875 659.742188 358.476562 639.039062 329.894531 C 639.085938 329.722656 639.144531 329.546875 639.171875 329.367188 C 674.394531 325.925781 700.320312 330.414062 724.441406 357.472656 C 739.878906 374.785156 751.226562 397.96875 758.171875 426.371094 C 764.609375 452.679688 764.210938 474.488281 756.988281 491.195312 Z M 559.378906 607.515625 C 483.496094 607.515625 419.230469 572.214844 410.800781 526.597656 C 411.222656 526.457031 411.644531 526.351562 412.066406 526.195312 C 427.417969 520.585938 439.859375 504.535156 445.347656 483.269531 C 448.429688 471.335938 449.355469 459.011719 450.253906 447.09375 C 450.671875 441.503906 451.113281 435.722656 451.765625 430.125 C 456.03125 393.480469 470.691406 357.816406 493.050781 329.519531 C 513.003906 318.851562 535.804688 313.171875 559.378906 313.171875 C 583.433594 313.171875 606.601562 319.058594 626.8125 330.121094 C 648.90625 358.316406 663.394531 393.738281 667.632812 430.125 C 668.289062 435.710938 668.722656 441.488281 669.140625 447.074219 C 670.039062 458.996094 670.96875 471.328125 674.050781 483.269531 C 679.542969 504.535156 691.984375 520.585938 707.332031 526.195312 C 707.554688 526.277344 707.785156 526.332031 708.007812 526.410156 C 699.738281 572.199219 635.679688 607.515625 559.378906 607.515625 Z M 362.410156 491.195312 C 355.1875 474.488281 354.785156 452.679688 361.222656 426.371094 C 368.171875 397.972656 379.519531 374.789062 394.957031 357.472656 C 414.617188 335.425781 435.453125 328.359375 461.5625 328.359375 C 467.636719 328.359375 474.007812 328.742188 480.703125 329.410156 C 459.800781 358.078125 446.125 393.097656 441.945312 428.980469 C 441.269531 434.777344 440.824219 440.660156 440.394531 446.351562 C 439.492188 458.367188 438.636719 469.714844 435.777344 480.796875 C 431.097656 498.914062 420.96875 512.414062 408.675781 516.90625 C 389.90625 523.761719 370.0625 508.894531 362.410156 491.195312 Z M 767.777344 424.023438 C 760.441406 394.03125 748.34375 369.429688 731.824219 350.894531 C 703.121094 318.703125 671.449219 315.3125 629.792969 320.472656 C 608.550781 309.238281 584.394531 303.285156 559.378906 303.285156 C 534.464844 303.285156 510.328125 309.234375 489.117188 320.414062 C 447.695312 315.34375 416.164062 318.828125 387.578125 350.894531 C 371.050781 369.433594 358.953125 394.035156 351.621094 424.023438 C 344.5625 452.871094 345.125 476.125 353.335938 495.121094 C 361.09375 513.0625 379.46875 528.480469 399.195312 528.480469 C 399.820312 528.480469 400.449219 528.429688 401.074219 528.402344 C 410.429688 579.390625 477.476562 617.398438 559.378906 617.398438 C 640.253906 617.398438 708.367188 578.675781 717.710938 528.375 C 718.542969 528.429688 719.371094 528.480469 720.199219 528.480469 C 739.925781 528.480469 758.304688 513.0625 766.0625 495.121094 C 774.269531 476.125 774.835938 452.871094 767.777344 424.023438 Z M 655.65625 535.050781 C 652.589844 548.964844 641.800781 564.914062 620.722656 567.960938 C 581.511719 573.632812 564.640625 534.332031 563.945312 532.667969 C 563.183594 530.820312 561.378906 529.617188 559.382812 529.613281 C 559.378906 529.613281 559.378906 529.613281 559.375 529.613281 C 557.378906 529.613281 555.578125 530.816406 554.8125 532.660156 C 554.113281 534.332031 537.25 573.621094 498.027344 567.960938 C 476.949219 564.914062 466.164062 548.964844 463.097656 535.050781 C 459.144531 517.125 466.058594 499.378906 480.707031 489.832031 C 490.015625 483.761719 501.484375 481.726562 512.699219 481.726562 C 521.730469 481.726562 530.570312 483.054688 538.003906 484.660156 C 539.773438 493.496094 548.65625 509.699219 559.378906 509.699219 C 570.101562 509.699219 578.984375 493.488281 580.75 484.65625 C 597.410156 481.058594 621.25 478.882812 638.046875 489.832031 C 652.695312 499.378906 659.609375 517.125 655.65625 535.050781 Z M 643.449219 481.546875 C 623.496094 468.554688 596.5625 470.996094 578.1875 475.03125 C 574.441406 470.933594 567.429688 468.167969 559.378906 468.167969 C 551.324219 468.167969 544.3125 470.933594 540.5625 475.03125 C 522.195312 470.992188 495.261719 468.546875 475.304688 481.546875 C 457.175781 493.363281 448.597656 515.199219 453.441406 537.179688 C 458.261719 559.050781 474.804688 574.59375 496.613281 577.746094 C 499.730469 578.195312 502.726562 578.40625 505.609375 578.40625 C 534.535156 578.40625 551.800781 557.242188 559.378906 544.96875 C 567.707031 558.460938 587.730469 582.722656 622.140625 577.746094 C 643.945312 574.59375 660.492188 559.050781 665.3125 537.179688 C 670.15625 515.199219 661.574219 493.359375 643.449219 481.546875"/></g><g clip-path="url(#c)"><path fill="#425E20" d="M 957.226562 410.132812 C 935.503906 455.175781 945.949219 521.511719 972.640625 555 C 1025.070312 620.785156 1192.929688 624.996094 1260.320312 570.410156 C 1301.136719 537.351562 1315.050781 474.492188 1291.144531 409.105469 C 1301.046875 384.75 1303.75 345.792969 1299.363281 313.558594 C 1279.121094 322.664062 1261.503906 336.695312 1247.992188 351.570312 C 1243.960938 356.011719 1240.511719 365.429688 1232.578125 363.902344 C 1227.804688 360.800781 1230.535156 350.195312 1226.414062 346.4375 C 1220.765625 346.300781 1222.554688 359.734375 1216.140625 361.847656 C 1211.875 363.25 1196.828125 357.734375 1188.402344 356.710938 C 1138.054688 350.589844 1072.042969 353.023438 1031.203125 361.847656 C 1026.046875 358.78125 1028.777344 347.835938 1021.957031 346.4375 C 1018.09375 351.132812 1020.617188 362.21875 1014.765625 364.929688 C 992.3125 348.339844 977.910156 323.699219 949.007812 313.558594 C 944.574219 346.523438 947.890625 384.644531 957.226562 410.132812 Z M 1010.65625 349.515625 C 1013.558594 332.136719 1035.589844 336.101562 1036.339844 352.601562 C 1087.480469 341.523438 1159.992188 341.117188 1211.003906 352.601562 C 1213.308594 337.730469 1234.175781 330.910156 1237.71875 349.515625 C 1257.410156 332.90625 1274.628906 308.347656 1303.472656 304.3125 C 1310.535156 312.925781 1310.632812 328.558594 1310.667969 341.296875 C 1310.726562 364.996094 1305.585938 391.507812 1300.390625 409.105469 C 1323.472656 466.167969 1308.128906 533.25 1277.789062 566.300781 C 1248.878906 597.789062 1192.015625 612.644531 1140.109375 616.640625 C 1072.609375 621.839844 1001.363281 599.03125 970.585938 566.300781 C 945.371094 539.484375 930.53125 489.824219 938.734375 440.957031 C 940.480469 430.554688 947.605469 420.421875 947.980469 410.132812 C 948.273438 402.109375 942.457031 390.234375 940.789062 378.285156 C 937.792969 356.859375 936.300781 325.046875 942.84375 305.339844 C 943.597656 304.382812 944.710938 303.785156 945.925781 303.285156 C 975.316406 310.882812 990.929688 332.253906 1010.65625 349.515625" fill-rule="evenodd"/></g><path fill="#425E20" d="M 968.53125 393.695312 C 970.773438 384.640625 979.648438 382.210938 987.023438 378.285156 C 981.355469 364.429688 967.496094 358.769531 962.367188 344.382812 C 962.199219 343.1875 962.589844 342.550781 963.394531 342.324219 C 964.304688 341.527344 965.714844 341.222656 967.503906 341.300781 C 969.40625 349.480469 999.648438 367.261719 997.296875 379.3125 C 996.550781 383.136719 989.195312 385.496094 985.996094 387.53125 C 980.40625 391.085938 974.390625 399.058594 968.53125 393.695312" fill-rule="evenodd"/><path fill="#425E20" d="M 1284.980469 341.296875 C 1285.269531 357.046875 1268.144531 364.152344 1261.351562 376.230469 C 1265.925781 383.527344 1281.914062 384.125 1278.816406 395.75 C 1266.769531 393.070312 1259.351562 385.761719 1251.078125 379.3125 C 1257.433594 363.070312 1271.140625 354.167969 1280.871094 341.296875 C 1282.242188 341.296875 1283.613281 341.296875 1284.980469 341.296875" fill-rule="evenodd"/><path fill="#425E20" d="M 1072.300781 447.121094 C 1059.714844 447.726562 1053.371094 438.316406 1040.449219 437.875 C 1028.710938 437.476562 1014 443.449219 1006.546875 450.203125 C 1001.722656 454.570312 1001.347656 463.8125 993.1875 463.558594 C 989.957031 444.617188 1021.335938 427.152344 1045.585938 429.65625 C 1056.652344 430.796875 1071.449219 435.863281 1072.300781 447.121094" fill-rule="evenodd"/><path fill="#425E20" d="M 1255.183594 463.558594 C 1247.5625 463.917969 1246.957031 455.230469 1242.855469 451.230469 C 1235.382812 443.9375 1220.582031 437.753906 1208.949219 437.875 C 1195.304688 438.015625 1189.050781 447.808594 1176.074219 447.121094 C 1179.703125 432.460938 1199.285156 428.351562 1214.089844 429.65625 C 1224.832031 430.601562 1238.25 436.941406 1244.910156 441.984375 C 1250.9375 446.542969 1258.96875 456.050781 1255.183594 463.558594" fill-rule="evenodd"/><path fill="#425E20" d="M 1108.261719 460.476562 C 1112.789062 475.023438 1135.632812 475.265625 1140.109375 460.476562 C 1131.359375 457.691406 1117.015625 457.6875 1108.261719 460.476562 Z M 1132.921875 500.546875 C 1138.601562 499.035156 1135.347656 488.589844 1142.164062 488.214844 C 1151.609375 495.804688 1140.394531 512.972656 1128.808594 507.738281 C 1122.203125 504.75 1126.628906 504.476562 1120.589844 507.738281 C 1109.050781 513.964844 1098.046875 496.800781 1105.179688 488.214844 C 1112.667969 487.917969 1110.535156 497.246094 1114.425781 500.546875 C 1119.730469 499.019531 1121.460938 490.324219 1119.5625 484.109375 C 1116.308594 473.445312 1097.988281 475.433594 1100.042969 460.476562 C 1102.160156 445.027344 1151.6875 442.90625 1148.332031 464.585938 C 1146.457031 476.699219 1116.613281 480.453125 1132.921875 500.546875" fill-rule="evenodd"/><g fill="#FFF"><g><g><path d="M 57.785156 1.1875 C 89.300781 1.1875 115.566406 -25.078125 115.566406 -56.597656 L 115.566406 -93.03125 C 115.566406 -107.941406 103.199219 -120.3125 88.792969 -120.3125 C 73.710938 -120.3125 61.511719 -107.941406 61.511719 -93.03125 L 61.511719 -59.816406 C 61.511719 -57.785156 59.816406 -55.582031 57.785156 -55.582031 C 55.582031 -55.582031 54.054688 -57.785156 54.054688 -59.816406 L 54.054688 -93.03125 C 54.054688 -107.941406 42.195312 -120.3125 27.28125 -120.3125 C 12.199219 -120.3125 0 -107.941406 0 -93.03125 L 0 -56.597656 C 0 -25.078125 26.097656 1.1875 57.785156 1.1875 Z M 57.785156 1.1875" transform="translate(471.676 941.84)"/></g></g></g><g fill="#FFF"><g><g><path d="M 28.128906 1.1875 C 43.042969 1.1875 55.410156 -11.523438 55.410156 -26.433594 L 55.410156 -40.160156 C 55.410156 -41.515625 56.597656 -41.855469 57.105469 -40.5 L 60.15625 -23.894531 C 87.269531 -23.046875 109.636719 -45.074219 109.636719 -72.019531 C 109.636719 -98.792969 88.453125 -120.3125 61.511719 -120.3125 L 28.128906 -120.3125 C 12.371094 -120.3125 0 -107.941406 0 -92.859375 L 0 -26.433594 C 0 -11.015625 12.371094 1.1875 28.128906 1.1875 Z M 57.953125 -78.289062 C 61.511719 -78.289062 64.5625 -75.578125 64.5625 -72.019531 C 64.5625 -68.460938 61.511719 -65.410156 57.953125 -65.410156 C 57.105469 -65.410156 56.257812 -65.75 55.410156 -66.257812 L 55.410156 -77.949219 C 56.257812 -78.289062 57.105469 -78.289062 57.953125 -78.289062 Z M 57.953125 -78.289062" transform="translate(591.977 941.84)"/></g></g></g><g fill="#FFF"><g><g><path d="M 27.453125 0 L 59.648438 0 C 94.894531 0 94.894531 -54.226562 59.648438 -54.226562 L 53.71875 -54.226562 L 54.054688 -93.707031 C 54.054688 -108.449219 42.023438 -120.652344 26.941406 -120.652344 C 12.03125 -120.652344 0 -108.449219 0 -93.707031 L 0 -27.453125 C -0.507812 -11.863281 11.691406 0 27.453125 0 Z M 27.453125 0" transform="translate(704.653 941.84)"/></g></g></g><g fill="#FFF"><g><g><path d="M 61.003906 -122.007812 C 27.453125 -122.007812 -0.507812 -94.214844 -0.507812 -60.324219 C -0.507812 -26.265625 27.453125 1.015625 61.003906 1.015625 C 95.0625 1.015625 122.855469 -26.265625 122.855469 -60.324219 C 122.855469 -94.214844 95.0625 -122.007812 61.003906 -122.007812 Z M 61.003906 -66.765625 C 64.5625 -66.765625 67.613281 -64.222656 67.613281 -60.324219 C 67.613281 -56.765625 64.5625 -53.71875 61.003906 -53.71875 C 57.953125 -53.71875 54.902344 -56.765625 54.902344 -60.324219 C 54.902344 -64.222656 57.953125 -66.765625 61.003906 -66.765625 Z M 61.003906 -66.765625" transform="translate(794.285 941.84)"/></g></g></g><g fill="#FFF"><g><g><path d="M 27.453125 -0.167969 L 51.851562 -0.167969 C 85.234375 -0.167969 112.347656 -27.113281 112.347656 -60.496094 C 112.347656 -93.539062 86.082031 -120.652344 53.039062 -120.652344 L 26.941406 -120.652344 C 11.691406 -120.652344 0 -108.28125 0 -93.539062 L 0 -26.605469 C 0 -11.863281 12.199219 -0.167969 27.453125 -0.167969 Z M 54.902344 -54.226562 L 51.34375 -54.226562 L 51.34375 -66.933594 L 54.902344 -66.933594 C 58.800781 -66.933594 61.511719 -63.882812 61.511719 -60.324219 C 61.511719 -56.9375 58.800781 -54.226562 54.902344 -54.226562 Z M 54.902344 -54.226562" transform="translate(1097.18 941.84)"/></g></g></g><g clip-path="url(#d)"><g clip-path="url(#e)"><g clip-path="url(#f)"><path fill="#425E20" d="M 918.550781 851.664062 C 917.578125 833.160156 931.238281 822.679688 948.539062 830.796875 C 959.394531 835.898438 969.527344 849.46875 970.847656 864.363281 C 972.472656 882.6875 957.453125 893.929688 940.691406 885.421875 C 930.050781 880.019531 919.359375 866.921875 918.550781 851.664062 Z M 1057.4375 771.296875 C 1076.757812 776.382812 1080.808594 810.058594 1060.996094 831.875 C 1043.132812 851.546875 1016.253906 833.855469 1025.644531 798.570312 C 1029.1875 785.222656 1042.484375 767.351562 1057.4375 771.296875 Z M 1116.78125 850.183594 C 1114.558594 864.171875 1104.433594 876.824219 1091.898438 882.007812 C 1074.597656 889.15625 1060.089844 878.136719 1062.785156 859.664062 C 1065.117188 843.65625 1077.589844 832.082031 1087.726562 827.894531 C 1104.453125 820.984375 1119.714844 831.71875 1116.78125 850.183594 Z M 952.976562 925.519531 C 950.425781 910.171875 967.074219 889.691406 977.230469 879.867188 C 981.402344 875.832031 987.625 870.710938 992.675781 867.546875 C 1011.371094 855.816406 1023.582031 855.578125 1041.796875 869.886719 C 1047.4375 874.316406 1051.867188 878.496094 1056.183594 883.539062 C 1057.34375 884.902344 1058.253906 885.914062 1059.296875 887.402344 L 1065.324219 895.246094 C 1072.679688 905.007812 1084.933594 928.960938 1077.183594 939.785156 C 1068.835938 951.429688 1047.242188 945.667969 1033.4375 941.273438 C 1027.222656 939.296875 1017.074219 935.746094 1010.308594 935.582031 C 995.234375 935.21875 986.773438 948.753906 966.210938 939.859375 C 960.261719 937.289062 954.109375 932.324219 952.976562 925.519531 Z M 983.332031 770.933594 C 988.035156 771.960938 990.832031 773.488281 993.898438 775.886719 C 997.667969 778.832031 998.539062 780.40625 1001.105469 783.570312 C 1003.675781 786.75 1004.90625 788.898438 1006.621094 792.78125 C 1017.195312 816.644531 1007.210938 843.050781 986.667969 838.324219 C 973.152344 835.207031 963.101562 819.21875 960.523438 805.140625 C 958.945312 796.507812 959.675781 787.246094 963.816406 780.058594 C 967.101562 774.347656 973.980469 768.894531 983.332031 770.933594 Z M 983.332031 770.933594" fill-rule="evenodd"/></g></g></g></svg>
