<svg width="48" height="48" viewBox="0 0 48 48" fill="none" xmlns="http://www.w3.org/2000/svg">
<path d="M30.1557 25.8814L37.069 29.0238C38.854 29.8352 40 31.6149 40 33.5757V35C40 37.7614 37.7614 40 35 40H13C10.2386 40 8 37.7614 8 35V33.5757C8 31.6149 9.14601 29.8352 10.931 29.0238L17.8443 25.8814C15.5042 24.0511 14 21.2012 14 18C14 12.4772 18.4772 8 24 8C29.5228 8 34 12.4772 34 18C34 21.2012 32.4958 24.0511 30.1557 25.8814ZM19.9225 27.1337L11.7586 30.8446C10.6876 31.3314 10 32.3992 10 33.5757V35C10 36.6569 11.3431 38 13 38H35C36.6569 38 38 36.6569 38 35V33.5757C38 32.3992 37.3124 31.3314 36.2414 30.8446L28.0775 27.1337C26.8322 27.6904 25.4523 28 24 28C22.5477 28 21.1678 27.6904 19.9225 27.1337ZM24 26C28.4183 26 32 22.4183 32 18C32 13.5817 28.4183 10 24 10C19.5817 10 16 13.5817 16 18C16 22.4183 19.5817 26 24 26Z" fill="black"/>
</svg>
